<svg width="200" height="200" viewBox="0 0 200 200" fill="none" xmlns="http://www.w3.org/2000/svg">
<path d="M69.2593 148.324C69.2593 147.771 69.2793 147.225 69.3163 146.687L60.3993 147.9C53.1723 148.92 51.1164 145.812 50.3274 141.244L35.0563 64.6289C35.0563 64.6289 18.4723 62.0699 14.8683 61.4779C11.2643 60.8869 9.62635 59.7809 9.02035 56.5109C8.41335 53.2409 6.58435 43.6859 6.15435 41.5159C5.43435 37.9179 7.21235 35.6829 11.9293 36.3699C16.6453 37.0559 44.3213 41.4049 44.3213 41.4049L51.4263 42.4629C51.7013 42.5029 51.9773 42.5519 52.2523 42.6089C54.2703 43.0229 55.7954 44.0499 57.1894 45.5309C59.6564 48.0269 63.1454 61.4319 63.1454 61.4319L156.87 73.0049C158.058 72.9099 162.465 74.302 162.465 77.741L153.107 129.417C153.107 133.337 149.591 135.755 147.342 136.063L138.651 137.247C139.013 138.863 139.212 140.611 139.212 142.436C139.212 150.706 135.135 157.41 130.104 157.41C125.076 157.41 120.998 150.706 120.998 142.436C120.998 141.477 121.052 140.539 121.157 139.628L92.9844 143.464C93.3154 145.004 93.4924 146.634 93.4924 148.324C93.4924 157.659 88.0683 165.226 81.3783 165.226C74.6843 165.226 69.2593 157.659 69.2593 148.324Z" fill="url(#paint0_linear_2866_540)"/>
<path d="M46.1084 120.076C62.9944 117.732 82.4374 116.396 103.132 116.396C121.722 116.396 139.3 117.474 154.923 119.391L153.107 129.415C153.107 133.335 149.589 135.753 147.34 136.061L138.651 137.245C139.013 138.861 139.212 140.609 139.212 142.434C139.212 150.704 135.136 157.408 130.104 157.408C125.075 157.408 120.996 150.704 120.996 142.434C120.996 141.475 121.053 140.536 121.156 139.625L92.9844 143.462C93.3134 145.002 93.4924 146.632 93.4924 148.322C93.4924 157.657 88.0674 165.224 81.3784 165.224C74.6854 165.224 69.2624 157.657 69.2624 148.322C69.2624 147.769 69.2804 147.223 69.3204 146.685L60.4004 147.898C53.1734 148.918 51.1194 145.81 50.3294 141.242L46.1084 120.076Z" fill="url(#paint1_linear_2866_540)"/>
<path fill-rule="evenodd" clip-rule="evenodd" d="M136.522 73.2194C136.522 83.0544 144.495 91.0264 154.328 91.0264C164.164 91.0264 172.136 83.0544 172.136 73.2194C172.136 63.3834 164.164 55.4115 154.328 55.4115C144.494 55.4115 136.522 63.3834 136.522 73.2194ZM154.339 34.0345C158.998 34.0345 162.873 33.4685 162.873 39.9565C162.873 40.8265 163.221 41.8705 163.221 42.7425C163.221 44.4835 166.967 46.2255 167.924 46.2255C170.145 46.2255 173.15 41.3485 176.111 41.3485C179.158 41.3485 186.214 50.3195 186.214 51.4525C186.214 54.4565 181.336 57.4605 181.336 59.6385C181.336 67.9125 190.28 62.0725 193.516 67.2545V79.2185C188.986 83.3265 181.336 78.5375 181.336 86.8115C181.336 89.0325 186.214 92.0375 186.214 94.9985C186.214 98.0475 177.288 105.102 176.111 105.102C173.15 105.102 170.145 100.224 167.924 100.224C164.701 100.224 163.57 102.358 163.57 104.405C163.57 105.276 162.873 108.239 162.873 109.107C162.873 112.941 155.252 112.419 154.339 112.419C151.987 112.419 146.152 112.679 146.152 108.76C146.152 107.89 145.455 104.58 145.455 103.71C145.455 101.881 141.798 100.226 140.58 100.226C138.707 100.226 135.527 105.103 132.568 105.103C129.562 105.103 122.466 96.1765 122.466 94.9995C122.466 92.0385 127.343 89.0335 127.343 86.8125C127.343 83.5905 125.208 82.4585 123.335 82.4585C115.716 82.4585 115.149 79.7595 115.149 73.2275C115.149 70.8755 114.756 65.0395 118.806 65.0395C121.811 65.0395 127.342 64.5185 127.342 59.6405C127.342 57.4625 122.465 54.4585 122.465 51.4545C122.465 48.4495 131.434 41.3505 132.567 41.3505C135.571 41.3505 138.575 46.2275 140.753 46.2275C143.975 46.2275 145.107 44.1375 145.107 42.0465C145.107 41.1765 145.806 38.2154 145.806 37.3444C145.807 33.4234 153.424 34.0345 154.339 34.0345Z" fill="#24C8FE"/>
<path d="M87.7959 75.749L113.734 96.519L88.4549 113.578L88.3469 107.372L33.5239 103.402L27.9639 77.629L87.9049 81.9561L87.7959 75.749Z" fill="#00E0E0"/>
<path d="M42.9304 104.079L33.5234 103.401L43.9704 109.5L42.9304 104.079Z" fill="#24C8FE"/>
<path d="M115.548 67.9014L136.725 70.5144C136.59 71.3974 136.522 72.2994 136.522 73.2194C136.522 83.0544 144.493 91.0264 154.328 91.0264C156.399 91.0264 158.39 90.6724 160.241 90.0204L156.182 112.436C155.279 112.452 154.578 112.415 154.338 112.415C151.987 112.415 146.152 112.676 146.152 108.757C146.152 107.887 145.455 104.576 145.455 103.706C145.455 101.877 141.798 100.222 140.578 100.222C138.707 100.222 135.527 105.1 132.566 105.1C129.56 105.1 122.464 96.1735 122.464 94.9965C122.464 92.0355 127.341 89.0304 127.341 86.8094C127.341 83.5874 125.206 82.4554 123.335 82.4554C115.714 82.4554 115.147 79.7564 115.147 73.2244C115.149 71.9694 115.037 69.7234 115.548 67.9014Z" fill="url(#paint2_linear_2866_540)"/>
<defs>
<linearGradient id="paint0_linear_2866_540" x1="4.82896" y1="99.9374" x2="162.614" y2="103.013" gradientUnits="userSpaceOnUse">
<stop stop-color="#5F1DFB"/>
<stop offset="0.1446" stop-color="#6620FB"/>
<stop offset="0.3474" stop-color="#7827FC"/>
<stop offset="0.5848" stop-color="#9632FD"/>
<stop offset="0.8462" stop-color="#BF42FE"/>
<stop offset="1" stop-color="#DB4DFF"/>
</linearGradient>
<linearGradient id="paint1_linear_2866_540" x1="46.1596" y1="137.158" x2="151.05" y2="144.268" gradientUnits="userSpaceOnUse">
<stop stop-color="#1B2BBB"/>
<stop offset="0.6138" stop-color="#0D6DD2"/>
<stop offset="0.9677" stop-color="#068FDE"/>
</linearGradient>
<linearGradient id="paint2_linear_2866_540" x1="112.318" y1="80.6899" x2="163.512" y2="98.3742" gradientUnits="userSpaceOnUse">
<stop stop-color="#1E30D2"/>
<stop offset="1" stop-color="#04DBF0"/>
</linearGradient>
</defs>
</svg>
